<?xml version="1.0" standalone="no"?>
<!DOCTYPE svg PUBLIC "-//W3C//DTD SVG 20010904//EN"
 "http://www.w3.org/TR/2001/REC-SVG-20010904/DTD/svg10.dtd">
<svg version="1.0" xmlns="http://www.w3.org/2000/svg"
 width="720.000000pt" height="720.000000pt" viewBox="0 0 720.000000 720.000000"
 preserveAspectRatio="xMidYMid meet">
<metadata>
Created by potrace 1.14, written by Peter Selinger 2001-2017
</metadata>
<g transform="translate(0.000000,720.000000) scale(0.100000,-0.100000)"
fill="#000000" stroke="none">
<path d="M3380 5537 c-3 -3 -34 -7 -70 -11 -36 -3 -83 -9 -105 -12 -73 -9
-274 -63 -372 -100 -122 -45 -305 -139 -341 -174 -15 -15 -58 -49 -97 -76
-208 -145 -393 -339 -521 -546 -98 -159 -202 -401 -210 -488 -1 -19 -12 -82
-23 -138 -29 -144 -35 -205 -36 -372 0 -137 7 -243 20 -300 3 -14 8 -38 11
-55 9 -55 26 -109 61 -205 37 -101 53 -129 47 -83 -4 26 -4 26 12 -7 9 -19 43
-89 74 -155 32 -66 65 -126 74 -134 22 -18 21 -14 -17 70 -46 101 -81 197
-112 303 -26 93 -27 96 -45 211 -6 39 -13 82 -15 98 -3 15 0 27 5 27 6 0 9 -3
8 -7 -1 -5 2 -28 7 -53 l9 -45 5 55 c3 30 4 100 1 155 -6 118 -2 235 8 235 4
0 7 -57 8 -128 0 -128 5 -185 24 -277 14 -71 39 -148 50 -155 5 -3 38 -71 73
-152 72 -162 131 -260 216 -358 79 -90 111 -134 116 -160 6 -29 43 -92 98
-166 69 -91 295 -305 389 -368 88 -58 254 -144 323 -167 22 -7 45 -16 50 -20
9 -6 130 -44 180 -56 46 -12 165 -32 225 -38 36 -4 83 -11 105 -15 41 -9 240
-6 285 5 14 3 43 8 65 11 226 32 483 121 679 237 154 91 255 169 391 302 243
238 419 547 505 885 21 83 24 99 42 215 20 128 14 550 -7 585 -2 4 -6 27 -9
52 -3 25 -8 52 -11 59 -2 8 -6 26 -9 41 -14 85 -118 368 -135 368 -5 0 -16 17
-27 37 -174 340 -398 591 -689 774 -113 71 -248 138 -289 143 -17 3 -79 20
-138 40 -107 36 -303 79 -409 91 -31 3 -67 8 -80 11 -30 7 -393 16 -399 11z
m330 -459 c0 -4 -4 -8 -9 -8 -6 0 -12 4 -15 8 -3 5 1 9 9 9 8 0 15 -4 15 -9z
m-160 -18 c7 -11 40 -3 40 10 0 9 66 3 119 -11 27 -6 37 -5 46 8 7 10 17 13
25 8 7 -4 22 -9 34 -10 11 -1 25 -3 29 -4 5 0 5 -7 1 -13 -4 -7 3 -4 15 7 27
24 24 23 45 6 14 -12 19 -12 25 -2 6 9 16 6 37 -14 16 -15 22 -23 15 -19 -20
10 -61 12 -67 3 -2 -4 22 -13 53 -19 149 -31 465 -160 503 -205 7 -8 18 -15
25 -15 7 0 30 -18 51 -41 22 -22 46 -44 55 -47 33 -14 242 -277 236 -296 -2
-6 5 -20 15 -31 12 -13 17 -28 13 -42 -4 -18 -1 -23 15 -23 18 0 19 -3 10 -21
-10 -17 -9 -20 7 -17 10 2 17 -2 16 -9 -2 -7 2 -12 8 -10 6 1 13 -5 14 -14 2
-9 6 -26 10 -38 3 -11 2 -21 -3 -21 -11 0 16 -88 33 -110 7 -8 10 -21 8 -28
-3 -7 4 -28 16 -47 15 -26 18 -41 11 -59 -6 -17 -3 -31 11 -55 12 -20 17 -41
13 -56 -4 -18 -2 -25 8 -25 16 0 17 -6 16 -200 0 -211 -2 -235 -15 -248 -8 -8
-11 -23 -7 -38 4 -13 0 -38 -9 -57 -8 -17 -17 -50 -20 -72 -4 -25 -13 -45 -26
-54 -12 -7 -21 -23 -21 -36 0 -24 -42 -108 -66 -132 -8 -8 -13 -20 -11 -26 2
-6 -14 -29 -35 -51 -22 -23 -50 -61 -63 -86 -13 -25 -39 -62 -59 -84 -20 -21
-36 -42 -36 -47 0 -5 -6 -9 -13 -9 -7 0 -24 -18 -37 -40 -14 -22 -31 -40 -37
-40 -7 0 -13 -9 -13 -19 0 -34 38 -12 82 45 22 30 42 54 45 54 2 0 1 -4 -2
-10 -10 -17 12 -11 26 7 11 13 11 15 1 9 -11 -7 -11 -4 0 13 7 12 16 21 21 21
4 0 5 -4 2 -10 -12 -19 4 -10 35 21 23 23 34 29 42 21 8 -8 3 -19 -18 -40 -16
-16 -39 -40 -51 -53 -12 -13 -40 -42 -62 -63 -53 -50 -55 -78 -3 -39 43 33 62
55 56 65 -3 5 5 8 19 8 15 0 32 12 47 32 25 34 56 70 103 122 28 31 28 31 -4
-24 -34 -58 -71 -100 -89 -100 -5 0 -10 -6 -10 -13 0 -22 -65 -116 -80 -117
-8 0 -20 -10 -25 -22 -6 -13 -29 -33 -52 -46 -24 -13 -43 -29 -43 -35 -1 -18
-112 -86 -220 -134 -52 -24 -98 -43 -103 -43 -5 0 -20 -9 -34 -19 -13 -11 -45
-23 -71 -27 -26 -4 -69 -15 -97 -25 -27 -10 -70 -19 -95 -20 -54 -3 -72 -8
-65 -19 3 -5 1 -11 -5 -15 -5 -3 -10 -1 -10 6 0 7 -3 9 -7 6 -3 -4 -12 -2 -20
5 -10 8 -17 8 -25 0 -9 -9 -8 -12 5 -12 9 0 17 -5 17 -10 0 -6 -28 -10 -67
-10 -38 0 -79 -2 -92 -3 -14 -2 -43 0 -65 4 -49 9 -59 4 -22 -10 32 -13 35
-25 4 -15 -13 5 -50 9 -83 9 -33 1 -105 9 -160 18 -55 9 -112 18 -126 20 -15
1 -35 9 -44 17 -10 8 -33 16 -52 17 -20 1 -43 9 -52 17 -9 8 -35 19 -58 25
-40 11 -73 33 -73 50 0 5 -14 11 -30 15 -31 6 -98 50 -113 73 -4 7 -15 13 -22
13 -8 0 -15 4 -15 9 0 13 -112 121 -125 121 -15 0 -115 108 -115 124 0 6 -16
22 -35 35 -19 13 -35 30 -35 37 0 8 -9 14 -19 14 -31 0 -15 -34 43 -91 28 -28
45 -48 39 -45 -18 10 -16 -19 2 -34 13 -11 14 -10 9 6 -7 18 -7 18 15 0 13
-12 17 -22 11 -26 -6 -4 -3 -13 10 -25 23 -21 27 -55 5 -55 -8 0 -15 6 -15 14
0 8 -14 26 -30 39 -17 14 -34 37 -40 51 -5 14 -14 26 -19 26 -5 0 -12 8 -15
18 -3 10 -19 26 -36 35 -17 10 -30 27 -30 38 0 10 -4 19 -8 19 -4 0 -8 10 -9
21 -1 12 -12 32 -24 45 -11 12 -18 27 -15 33 4 5 1 13 -5 17 -6 3 -18 23 -27
43 -11 26 -17 31 -20 19 -2 -10 8 -42 22 -72 14 -30 26 -59 26 -64 0 -5 7 -15
14 -22 21 -17 58 -97 54 -116 -2 -13 -19 -1 -65 44 -59 58 -75 82 -54 82 5 0
14 -7 21 -15 16 -19 31 -19 24 0 -4 8 -12 15 -20 15 -8 0 -15 5 -15 10 -1 6
-2 15 -3 20 -1 13 -28 30 -37 25 -17 -11 -117 285 -130 385 -8 68 -21 199 -23
243 -1 31 -16 18 -16 -15 0 -17 -3 -29 -6 -26 -13 14 -1 242 17 308 5 19 9 40
9 45 -1 11 -31 -42 -34 -59 -1 -6 -6 -18 -11 -26 -6 -8 -10 -33 -11 -55 -2
-90 -4 -106 -13 -101 -10 7 -21 -16 -21 -47 -1 -21 -1 -21 -12 -2 -7 12 -12
79 -12 178 -1 131 2 161 14 172 14 13 15 11 12 -19 -2 -19 1 -37 7 -40 7 -5
11 5 12 26 2 78 43 272 84 395 56 168 154 346 254 463 28 32 30 33 31 13 0
-13 3 -23 8 -23 4 1 31 31 59 68 59 76 116 138 153 167 24 19 24 19 10 1 -14
-18 -13 -19 10 -13 14 4 34 7 45 7 17 0 18 2 5 10 -13 9 -10 14 15 35 17 14
34 25 38 25 5 0 23 10 40 22 l32 22 -19 -22 c-18 -20 -18 -22 -2 -22 10 0 20
9 23 20 4 13 12 18 27 16 13 -2 25 4 32 17 6 11 26 25 45 32 19 7 72 27 119
45 47 18 103 34 125 37 62 7 106 23 98 36 -3 7 3 4 14 -6 12 -10 23 -14 24 -8
2 5 31 12 64 14 32 3 61 10 63 16 4 13 53 6 62 -9z m-663 -156 c-3 -3 -12 -4
-19 -1 -8 3 -5 6 6 6 11 1 17 -2 13 -5z m-1116 -1136 c-3 -21 -6 -26 -9 -15
-3 17 3 47 11 47 2 0 1 -15 -2 -32z m3245 -906 c-8 -15 -24 -36 -36 -47 -16
-14 -12 -5 11 28 37 53 46 60 25 19z m-2526 -336 c0 -7 9 -21 19 -30 15 -13
20 -14 25 -4 3 7 4 1 3 -14 -1 -18 8 -37 28 -59 41 -43 5 -24 -58 31 -33 29
-45 45 -36 50 6 5 9 17 6 29 -3 12 -1 19 4 15 5 -3 9 -11 9 -18z m512 -450
c93 -46 165 -86 161 -89 -3 -4 -1 -8 5 -8 26 -3 31 -4 38 -11 12 -13 -23 -9
-73 8 -26 9 -52 17 -58 18 -5 1 -55 25 -110 54 -120 63 -257 156 -247 167 4 4
-3 5 -15 2 -15 -3 -23 -1 -23 8 0 7 -7 19 -16 26 -15 12 -14 14 7 19 19 5 39
-7 94 -53 50 -42 118 -82 237 -141z"/>
<path d="M3465 3919 c-109 -38 -195 -120 -230 -218 -12 -36 -14 -153 -3 -191
26 -88 100 -168 198 -214 60 -29 73 -31 170 -31 97 0 110 2 172 32 77 36 142
98 178 169 21 41 25 63 25 139 0 85 -2 93 -34 145 -41 68 -90 114 -155 147
-62 32 -74 34 -176 39 -69 4 -96 0 -145 -17z m282 -20 c83 -35 117 -64 150
-128 35 -70 36 -139 2 -205 -82 -164 -345 -227 -529 -126 -42 23 -36 26 13 5
96 -40 236 -39 332 4 129 57 195 195 147 304 -68 153 -355 189 -470 58 -31
-35 -53 -87 -48 -114 3 -12 5 -27 5 -34 1 -19 77 -90 108 -100 82 -28 193 -6
233 45 39 48 17 121 -42 141 -40 14 -50 14 -74 -3 -18 -14 -18 -14 7 -12 64 7
98 -74 47 -108 -81 -53 -198 -6 -198 79 0 91 137 146 247 100 37 -15 100 -71
104 -93 18 -91 -34 -164 -140 -198 -128 -40 -285 16 -332 120 -53 116 20 233
175 281 67 21 191 13 263 -16z"/>
<path d="M4630 2500 c0 -5 -7 -10 -15 -10 -8 0 -30 -14 -50 -31 -19 -17 -35
-28 -35 -24 0 4 -13 -4 -29 -17 -15 -12 -37 -28 -47 -35 -16 -10 -16 -12 -3
-12 9 -1 36 12 60 29 24 16 49 30 54 30 6 1 30 19 55 40 31 28 40 40 28 40
-10 0 -18 -4 -18 -10z"/>
<path d="M2480 2496 c0 -2 8 -10 18 -17 15 -13 16 -12 3 4 -13 16 -21 21 -21
13z"/>
</g>
</svg>
